<svg width="57" height="56" viewBox="0 0 57 56" fill="none" xmlns="http://www.w3.org/2000/svg">
<rect x="0.5" width="56" height="56" rx="28" fill="#FFCACA"/>
<path d="M28 20.5H35.3C36.4201 20.5 36.9802 20.5 37.408 20.718C37.7843 20.9097 38.0903 21.2157 38.282 21.592C38.5 22.0198 38.5 22.5799 38.5 23.7V25C38.5 25.9319 38.5 26.3978 38.3478 26.7654C38.1448 27.2554 37.7554 27.6448 37.2654 27.8478C36.8978 28 36.4319 28 35.5 28M30 35.5H22.7C21.5799 35.5 21.0198 35.5 20.592 35.282C20.2157 35.0903 19.9097 34.7843 19.718 34.408C19.5 33.9802 19.5 33.4201 19.5 32.3V31C19.5 30.0681 19.5 29.6022 19.6522 29.2346C19.8552 28.7446 20.2446 28.3552 20.7346 28.1522C21.1022 28 21.5681 28 22.5 28M27.3 30.5H30.7C30.98 30.5 31.12 30.5 31.227 30.4455C31.3211 30.3976 31.3976 30.3211 31.4455 30.227C31.5 30.12 31.5 29.98 31.5 29.7V26.3C31.5 26.02 31.5 25.88 31.4455 25.773C31.3976 25.6789 31.3211 25.6024 31.227 25.5545C31.12 25.5 30.98 25.5 30.7 25.5H27.3C27.02 25.5 26.88 25.5 26.773 25.5545C26.6789 25.6024 26.6024 25.6789 26.5545 25.773C26.5 25.88 26.5 26.02 26.5 26.3V29.7C26.5 29.98 26.5 30.12 26.5545 30.227C26.6024 30.3211 26.6789 30.3976 26.773 30.4455C26.88 30.5 27.02 30.5 27.3 30.5ZM34.8 38H38.2C38.48 38 38.62 38 38.727 37.9455C38.8211 37.8976 38.8976 37.8211 38.9455 37.727C39 37.62 39 37.48 39 37.2V33.8C39 33.52 39 33.38 38.9455 33.273C38.8976 33.1789 38.8211 33.1024 38.727 33.0545C38.62 33 38.48 33 38.2 33H34.8C34.52 33 34.38 33 34.273 33.0545C34.1789 33.1024 34.1024 33.1789 34.0545 33.273C34 33.38 34 33.52 34 33.8V37.2C34 37.48 34 37.62 34.0545 37.727C34.1024 37.8211 34.1789 37.8976 34.273 37.9455C34.38 38 34.52 38 34.8 38ZM19.8 23H23.2C23.48 23 23.62 23 23.727 22.9455C23.8211 22.8976 23.8976 22.8211 23.9455 22.727C24 22.62 24 22.48 24 22.2V18.8C24 18.52 24 18.38 23.9455 18.273C23.8976 18.1789 23.8211 18.1024 23.727 18.0545C23.62 18 23.48 18 23.2 18H19.8C19.52 18 19.38 18 19.273 18.0545C19.1789 18.1024 19.1024 18.1789 19.0545 18.273C19 18.38 19 18.52 19 18.8V22.2C19 22.48 19 22.62 19.0545 22.727C19.1024 22.8211 19.1789 22.8976 19.273 22.9455C19.38 23 19.52 23 19.8 23Z" stroke="#3F4040" stroke-width="2" stroke-linecap="round" stroke-linejoin="round"/>
</svg>
