<svg width="57" height="57" viewBox="0 0 57 57" fill="none" xmlns="http://www.w3.org/2000/svg">
<rect x="0.5" y="0.5" width="56" height="56" rx="28" fill="#EEC1FF"/>
<path d="M36.998 19C37.2755 19 37.5 19.233 37.5 19.4922V23.0498L36.5 24.0498V20H26.5V25H21.5V37H36.5V33.9502L37.5 32.9502V37.5078L37.4902 37.6045C37.4712 37.6989 37.4246 37.7863 37.3555 37.8555C37.263 37.9478 37.1375 38 37.0068 38H20.9961C20.9307 37.9995 20.8659 37.9864 20.8057 37.9609C20.7452 37.9354 20.6897 37.8983 20.6436 37.8516C20.5976 37.8049 20.5618 37.7491 20.5371 37.6885C20.5124 37.6276 20.4995 37.5618 20.5 37.4961V24.707L26.21 19H36.998ZM39.4844 26.7217L32.207 33.999L31.498 33.998L31.499 33.293L38.7783 26.0137L39.4844 26.7217Z" fill="#F5F5F5" stroke="#3F4040"/>
</svg>
