<svg width="57" height="57" viewBox="0 0 57 57" fill="none" xmlns="http://www.w3.org/2000/svg">
<rect x="0.5" y="0.5" width="56" height="56" rx="28" fill="#C6E9FF"/>
<path d="M37.1084 19.8145C37.3374 19.8658 37.4999 20.068 37.5 20.3018V30.2891C37.5 32.1279 36.5805 33.846 35.0508 34.8652L29 38.8984L22.9492 34.8652C21.4184 33.845 20.5 32.1278 20.5 30.29V20.3018C20.5001 20.097 20.6247 19.916 20.8096 19.8398L20.8916 19.8145L29 18.0117L37.1084 19.8145ZM34.1592 26.1357L28.5029 31.793L24.9668 28.2568L25.6738 27.5498L28.502 30.3779L28.8555 30.0244L33.4512 25.4277L34.1592 26.1357ZM36.5 20.7031L36.1084 20.6162L29.5 19.1484V18.9258L28.8916 19.0605L21.8916 20.6162L21.5 20.7031V30.2891C21.5 31.7931 22.2518 33.1984 23.5039 34.0332L28.7227 37.5127L29 37.6982L29.2773 37.5127L34.4961 34.0332C35.7481 33.1985 36.5 31.7943 36.5 30.29V20.7031Z" fill="#F5F5F5" stroke="#3F4040"/>
</svg>
