<svg width="156" height="156" viewBox="0 0 156 156" fill="none" xmlns="http://www.w3.org/2000/svg">
<g clip-path="url(#clip0_337_319)">
<path d="M111.89 57.73C102.62 61.95 93.02 70.04 83.85 73.89C80.27 75.4 75.71 75.48 72.12 73.99C62.9 70.17 53.17 61.92 43.84 57.73C40.53 55.06 41.04 52.84 44.25 50.49C49.54 46.61 60.65 40.47 66.68 37.49C67.44 37.11 68.73 36.34 69.52 36.27C71.08 36.12 72.6 37.3 72.9 38.81C72.97 39.37 73.03 39.94 73.07 40.53C73.18 42.18 73.18 43.91 73.13 45.68C73.09 46.89 73.45 48.1 74.22 49.03C75.17 50.19 76.62 50.92 78.23 50.92C78.25 50.92 78.27 50.92 78.28 50.92C80.69 50.9 82.59 48.81 82.52 46.4C82.45 43.95 82.47 42.61 82.67 40.53C82.7 40.16 82.75 39.79 82.79 39.43C83.41 34.83 86.96 36.39 89.73 37.83C97.16 41.66 104.06 46.66 111.55 50.42C114.7 52.69 115.12 55.28 111.88 57.72L111.89 57.73Z" fill="#50C1B3"/>
<path d="M41.3495 82.95L66.0096 123.49C67.7596 126.37 72.1995 125.13 72.1995 121.76V94.07C72.1995 91.34 74.4095 89.13 77.1395 89.13C79.8695 89.13 82.0796 91.34 82.0796 94.07V122.44C82.0796 125.76 86.3995 127.04 88.2095 124.26L114.31 84.21C116.26 81.22 112.78 77.67 109.75 79.55L95.5295 88.38C93.3095 89.76 90.4296 88.16 90.4296 85.54V84.29C90.4296 82.45 88.9395 80.95 87.0895 80.95H66.5695C64.7295 80.95 63.2295 82.44 63.2295 84.29C63.2295 87.01 60.1495 88.59 57.9395 87L46.1496 78.5C43.1996 76.37 39.4595 79.83 41.3495 82.94V82.95Z" fill="#50C1B3"/>
<path d="M77.86 155.71C34.93 155.71 0 120.79 0 77.86C0 34.93 34.93 0 77.86 0C120.79 0 155.72 34.93 155.72 77.86C155.72 120.79 120.79 155.72 77.86 155.72V155.71ZM77.86 8.56C39.64 8.56 8.56 39.64 8.56 77.86C8.56 116.08 39.65 147.16 77.86 147.16C116.07 147.16 147.16 116.07 147.16 77.86C147.16 39.65 116.07 8.56 77.86 8.56Z" fill="#50C1B3"/>
</g>
<defs>
<clipPath id="clip0_337_319">
<rect width="155.71" height="155.71" fill="white"/>
</clipPath>
</defs>
</svg>
