<svg width="235" height="21" viewBox="0 0 235 21" fill="none" xmlns="http://www.w3.org/2000/svg">
<g clip-path="url(#clip0_337_299)">
<path d="M6.54031 20.6449V3.33347H0V0.352341H16.5737V3.33347H10.0004V20.6449H6.53755H6.54031Z" fill="#1A2753"/>
<path d="M31.8011 0.0330315C37.7964 0.0330315 42.6052 4.29689 42.6052 10.5151C42.6052 16.7334 37.7964 20.967 31.8011 20.967C25.8058 20.967 20.9336 16.7031 20.9336 10.5151C20.9336 4.32717 25.8388 0.0330315 31.8011 0.0330315ZM39.1121 10.5151C39.1121 6.31459 35.9713 3.17381 31.8038 3.17381C27.6363 3.17381 24.4295 6.31459 24.4295 10.5151C24.4295 14.7157 27.6033 17.8234 31.8038 17.8234C36.0044 17.8234 39.1121 14.6827 39.1121 10.5151Z" fill="#50C1B3"/>
<path d="M58.7308 0.0330315C64.726 0.0330315 69.5349 4.29689 69.5349 10.5151C69.5349 16.7334 64.726 20.967 58.7308 20.967C52.7355 20.967 47.8633 16.7031 47.8633 10.5151C47.8633 4.32717 52.7685 0.0330315 58.7308 0.0330315ZM66.0418 10.5151C66.0418 6.31459 62.901 3.17381 58.7335 3.17381C54.566 3.17381 51.3592 6.31459 51.3592 10.5151C51.3592 14.7157 54.533 17.8234 58.7335 17.8234C62.9341 17.8234 66.0418 14.6827 66.0418 10.5151Z" fill="#1A2753"/>
<path d="M80.4358 20.6449V3.33347H73.8955V0.352341H90.4692V3.33347H83.8959V20.6449H80.4331H80.4358Z" fill="#1A2753"/>
<path d="M96.1777 20.6449V0.319309H99.6406V8.84703H109.611V0.319309H113.074V20.6449H109.611V11.8612H99.6406V20.6449H96.1777Z" fill="#1A2753"/>
<path d="M122.496 14.3303C122.752 16.6398 124.965 17.9858 127.434 17.9858C129.71 17.9858 131.954 17.5372 131.954 15.5167C131.954 12.8246 127.946 12.1832 125.832 11.7015C122.818 11.0271 119.581 9.71412 119.581 5.83563C119.581 1.47542 123.363 0.096344 127.274 0.096344C131.538 0.096344 135.417 2.08376 135.224 6.66968H131.824C131.791 4.17027 129.581 3.08022 127.305 3.08022C125.35 3.08022 123.2 3.46559 123.2 5.48604C123.2 7.50649 125.606 8.30751 127.528 8.69288C130.894 9.43059 135.574 10.4573 135.574 15.1699C135.574 19.4971 131.535 21.0055 127.398 21.0055C123.261 21.0055 119.03 18.9548 118.967 14.3358H122.493L122.496 14.3303Z" fill="#1A2753"/>
<path d="M160.422 13.978C159.78 18.4015 155.965 20.967 150.837 20.967C144.297 20.967 140.226 16.6068 140.226 10.3885C140.226 4.74558 144.266 0 150.837 0C155.872 0 159.75 2.6921 160.488 6.98899H157.025C156.128 4.39324 153.818 3.1105 150.677 3.1105C146.637 3.1105 143.688 6.15494 143.688 10.3885C143.688 14.6221 146.639 17.8592 150.677 17.8592C153.818 17.8592 156.095 16.5765 156.992 13.9807H160.422V13.978Z" fill="#1A2753"/>
<path d="M188.953 20.6449V0.352341H192.416V20.6449H188.953Z" fill="#1A2753"/>
<path d="M199.853 20.6449V0.352341H207.643C211.073 0.352341 214.792 1.57177 214.792 5.67322C214.792 7.11561 213.831 9.68109 210.495 9.80771C212.901 9.84074 214.822 11.8584 214.822 14.6166C214.822 19.3291 211.423 20.6449 207.448 20.6449H199.851H199.853ZM203.316 8.78372H207.806C209.826 8.78372 211.299 8.20566 211.299 5.99528C211.299 3.7849 209.504 3.33347 207.484 3.33347H203.316V8.78372ZM203.316 17.6638H207.195C209.245 17.6638 211.329 17.3445 211.329 14.5863C211.329 11.8282 209.212 11.3162 207.258 11.3162H203.313V17.6638H203.316Z" fill="#1A2753"/>
<path d="M224.781 3.51239V8.83327H234.077V11.685H224.781V17.8097V20.8238H221.318V0.49823H234.784V3.51239H224.781Z" fill="#1A2753"/>
<path d="M234.592 17.8097H229.225V20.8238H234.592V17.8097Z" fill="#1A2753"/>
<path d="M172.118 13.0173H169.426V20.455H165.963V0.159653H173.178C177.601 0.159653 181.353 1.47542 181.353 6.44396C181.353 10.1628 178.628 12.2466 175.999 12.5356L178.724 16.3177C179.269 17.1188 180.23 17.9198 181.931 17.9198L187.2 17.9528V20.8073L181.001 20.7743C178.276 20.7743 176.737 19.5549 175.454 17.7601L172.121 13.0145L172.118 13.0173ZM172.374 10.1628C175.325 10.1628 177.887 9.77743 177.887 6.44396C177.887 3.62249 175.963 3.14078 172.853 3.14078H169.423V10.1628H172.374Z" fill="#1A2753"/>
<path d="M36.2823 7.6689C35.0546 8.22769 33.7801 9.30123 32.5634 9.81322C32.0872 10.0142 31.4844 10.0224 31.0082 9.82698C29.786 9.32049 28.495 8.22494 27.2563 7.67165C26.8159 7.31656 26.8847 7.02478 27.3114 6.71098C28.0133 6.19623 29.486 5.38145 30.287 4.98782C30.3888 4.93827 30.5595 4.83642 30.6641 4.82541C30.8706 4.80614 31.0742 4.96304 31.1128 5.16123C31.121 5.23556 31.1293 5.31263 31.1348 5.3897C31.1486 5.60716 31.1486 5.83839 31.1431 6.07236C31.1376 6.23202 31.1844 6.39167 31.2862 6.51554C31.4128 6.66969 31.6028 6.76603 31.8175 6.76603C31.8175 6.76603 31.823 6.76603 31.8257 6.76603C32.145 6.76328 32.3983 6.48526 32.3873 6.16595C32.3763 5.84664 32.379 5.66497 32.4065 5.38695C32.412 5.3374 32.4175 5.29061 32.423 5.24106C32.5056 4.63272 32.9763 4.83917 33.3452 5.02911C34.3306 5.53835 35.2473 6.20174 36.2382 6.69997C36.6566 7.00001 36.7117 7.34409 36.2823 7.6689Z" fill="#50C1B3"/>
<path d="M26.9292 11.0134L30.1994 16.3893C30.4306 16.7719 31.0197 16.6068 31.0197 16.1581V12.486C31.0197 12.1254 31.3142 11.8309 31.6748 11.8309C32.0354 11.8309 32.3299 12.1254 32.3299 12.486V16.2489C32.3299 16.6893 32.9025 16.86 33.1447 16.4912L36.6075 11.1785C36.8663 10.7822 36.4066 10.3114 36.002 10.5619L34.1164 11.7346C33.8219 11.919 33.4392 11.707 33.4392 11.3575V11.1923C33.4392 10.9473 33.241 10.7491 32.9961 10.7491H30.2737C30.0287 10.7491 29.8305 10.9473 29.8305 11.1923C29.8305 11.5529 29.4231 11.7621 29.1286 11.5501L27.5651 10.4243C27.1742 10.1435 26.676 10.6005 26.9292 11.0134Z" fill="#50C1B3"/>
</g>
<defs>
<clipPath id="clip0_337_299">
<rect width="234.785" height="21" fill="white"/>
</clipPath>
</defs>
</svg>
