<svg width="36" height="36" viewBox="0 0 36 36" fill="none" xmlns="http://www.w3.org/2000/svg">
<rect width="36" height="36" rx="8" fill="#CCFBF2"/>
<path d="M11.332 10.1665H21.126L25 14.0405V25.4976C25.0003 25.5413 24.992 25.5849 24.9756 25.6255C24.9591 25.6659 24.9349 25.7028 24.9043 25.7339C24.8736 25.765 24.8371 25.7901 24.7969 25.8071C24.7565 25.8242 24.7127 25.8332 24.6689 25.8335H11.3311C11.2435 25.8329 11.1596 25.7977 11.0977 25.7358C11.0511 25.6894 11.0199 25.6304 11.0068 25.5669L11 25.5024V10.4937C11 10.3165 11.1451 10.1668 11.332 10.1665ZM11.667 25.1665H24.333V14.1665H21V10.8335H11.667V25.1665ZM18.333 15.1665V17.6665H20.833V18.3335H18.333V20.8335H17.667V18.3335H15.167V17.6665H17.667V15.1665H18.333Z" fill="#1A1A1A" stroke="#3F4040"/>
</svg>
