<svg width="36" height="36" viewBox="0 0 36 36" fill="none" xmlns="http://www.w3.org/2000/svg">
<rect width="36" height="36" rx="8" fill="#EEC1FF"/>
<path d="M17.5 20.8569C16.2246 20.9733 15.0233 21.5318 14.1104 22.4448C13.1976 23.3577 12.6398 24.5584 12.5234 25.8335H11.8555C11.9736 24.3811 12.6017 23.0111 13.6396 21.9731C14.6777 20.9351 16.0475 20.306 17.5 20.188V20.8569ZM23 21.2505C22.5359 21.2505 22.0909 21.435 21.7627 21.7632C21.4345 22.0914 21.25 22.5364 21.25 23.0005C21.2501 23.4645 21.4346 23.9097 21.7627 24.2378C22.0909 24.5658 22.536 24.7505 23 24.7505C23.464 24.7504 23.9092 24.5659 24.2373 24.2378C24.5654 23.9097 24.7499 23.4645 24.75 23.0005C24.75 22.5365 24.5653 22.0913 24.2373 21.7632C23.9092 21.4351 23.464 21.2506 23 21.2505ZM18 9.3335C20.4862 9.33367 22.5 11.3472 22.5 13.8335C22.5 16.3197 20.4862 18.3333 18 18.3335C15.5136 18.3335 13.5 16.3199 13.5 13.8335C13.5 11.3471 15.5136 9.3335 18 9.3335ZM18 10.0005C15.8822 10.0005 14.166 11.7157 14.166 13.8335C14.166 15.9513 15.8822 17.6665 18 17.6665C20.1177 17.6663 21.833 15.9512 21.833 13.8335C21.833 11.7158 20.1177 10.0007 18 10.0005ZM22.666 25.4233L22.3096 25.3169C21.9468 25.2087 21.6137 25.0167 21.3389 24.7563L21.0684 24.4995L20.7451 24.686L20.3506 24.9136L20.0176 24.3364L20.4121 24.1099L20.7344 23.9233L20.6484 23.561C20.5609 23.1925 20.5609 22.8085 20.6484 22.4399L20.7344 22.0776L20.4121 21.8911L20.0186 21.6636L20.3516 21.0864L20.7451 21.314L21.0684 21.5005L21.3389 21.2437C21.6137 20.9833 21.9468 20.7913 22.3096 20.6831L22.666 20.5767V19.7505H23.333V20.5776L23.6904 20.6841C24.0567 20.7929 24.3885 20.9866 24.6602 21.2437L24.9307 21.5005L25.2539 21.314L25.6465 21.0864L25.9795 21.6636L25.5869 21.8911L25.2646 22.0776L25.3506 22.4399C25.438 22.8082 25.438 23.1918 25.3506 23.5601L25.2646 23.9224L25.5869 24.1089L25.9805 24.3354L25.6475 24.9126L25.2539 24.686L24.9307 24.4995L24.6602 24.7563C24.3854 25.0166 24.0531 25.2087 23.6904 25.3169L23.333 25.4233V26.2505H22.666V25.4233Z" fill="#1A1A1A" stroke="#3F4040"/>
</svg>
