<svg width="36" height="36" viewBox="0 0 36 36" fill="none" xmlns="http://www.w3.org/2000/svg">
<rect width="36" height="36" rx="8" fill="#FFCACA"/>
<path d="M11.333 10.1665H24.667C24.7553 10.1666 24.8399 10.2017 24.9023 10.2642C24.9648 10.3266 24.9999 10.4112 25 10.4995V25.4995C25 25.5879 24.9649 25.6733 24.9023 25.7358C24.8399 25.7982 24.7552 25.8334 24.667 25.8335H11.333C11.2448 25.8334 11.1601 25.7982 11.0977 25.7358C11.0351 25.6733 11 25.5879 11 25.4995V10.4995L11.0068 10.4341C11.0197 10.3702 11.0509 10.3109 11.0977 10.2642C11.1601 10.2017 11.2447 10.1666 11.333 10.1665ZM11.667 25.1665H24.333V10.8335H11.667V25.1665ZM20.833 20.9995V21.6665H15.167V20.9995H20.833ZM20.833 17.6665V18.3335H15.167V17.6665H20.833ZM20.833 14.3335V14.9995H15.167V14.3335H20.833Z" fill="#1A1A1A" stroke="#3F4040"/>
</svg>
