<svg width="36" height="36" viewBox="0 0 36 36" fill="none" xmlns="http://www.w3.org/2000/svg">
<rect width="36" height="36" rx="8" fill="#C6E9FF"/>
<path d="M18 9.3335C18.4815 9.3335 18.9585 9.42853 19.4033 9.61279C19.8481 9.79706 20.2523 10.0673 20.5928 10.4077C20.9332 10.7482 21.2035 11.1524 21.3877 11.5972C21.5719 12.042 21.667 12.519 21.667 13.0005V16.3335C21.667 17.306 21.2804 18.2386 20.5928 18.9263C19.9051 19.6139 18.9724 20.0005 18 20.0005C17.0276 20.0005 16.0948 19.6139 15.4072 18.9263C14.7196 18.2386 14.333 17.3059 14.333 16.3335V13.0005C14.333 12.0281 14.7197 11.0953 15.4072 10.4077C16.0948 9.7201 17.0276 9.33351 18 9.3335ZM18 10.0005C17.2045 10.0005 16.4415 10.316 15.8789 10.8784C15.3163 11.441 15 12.2048 15 13.0005V16.3335C15 17.1291 15.3163 17.892 15.8789 18.4546C16.4415 19.0172 17.2044 19.3335 18 19.3335C18.7956 19.3335 19.5585 19.0172 20.1211 18.4546C20.6837 17.892 21 17.1291 21 16.3335V13.0005C21 12.2048 20.6837 11.441 20.1211 10.8784C19.5585 10.316 18.7955 10.0005 18 10.0005ZM17.667 23.3403L17.2227 23.2905C15.6446 23.1136 14.1736 22.4056 13.0508 21.2827C12.0609 20.2928 11.3933 19.0325 11.1279 17.6665H11.8086C12.0981 19.0043 12.8134 20.2171 13.8545 21.1177C15.0056 22.1134 16.477 22.6616 17.999 22.6616C19.5211 22.6616 20.9924 22.1134 22.1436 21.1177C23.1847 20.2171 23.8999 19.0044 24.1895 17.6665H24.8711C24.6058 19.0323 23.9389 20.2928 22.9492 21.2827C21.8265 22.4055 20.3553 23.1135 18.7773 23.2905L18.333 23.3403V26.6665H17.667V23.3403Z" fill="#1A1A1A" stroke="#3F4040"/>
</svg>
